<svg height="61" viewBox="0 0 75 61" width="75" xmlns="http://www.w3.org/2000/svg"><g fill="none" fill-rule="evenodd"><g transform="translate(0 42.5)"><g fill="#888"><path d="m74.877551 11.865h-4.255102-5.5102041c.2755102 2.205 2.2040816 3.9 4.5153061 3.9 1.3622449 0 2.5867347-.585 3.4285714-1.53l.8112245.795c-1.0408163 1.14-2.5561224 1.845-4.2397959 1.845-2.9540816 0-5.3877551-2.205-5.6632653-5.025-.0153061-.18-.0306122-.375-.0306122-.555 0-3.09 2.4642857-5.58 5.6938775-5.58 3.5204082 0 5.2959184 2.505 5.2959184 5.58-.0153061.195-.0306123.375-.0459184.57zm-1.2857143-1.125c-.1989796-2.205-1.6224489-3.9-3.9642857-3.9-2.2193877 0-4.2244898 1.71-4.5153061 3.9z" /><path d="m58.0867347 6.705-.5663265-1.11h2.2806122v-5.595h1.1326531v5.58h1.6377551l.5663265 1.11h-2.2040816v6.705c0 1.41.6734694 2.67 1.7142857 3.48l-.5204082 1.02c-1.3010204-.945-2.1887755-2.415-2.3112245-4.08h-.0153061v-7.11z" /><path d="m53.25 7.68c.7653061-1.005 1.8673469-1.74 3.1377551-2.055v1.17c-1.8214286.585-3.1377551 2.265-3.1377551 4.245v5.715h-1.1326531v-11.16h1.1326531z" /><path d="m49.5153061 11.715h-4.255102-5.5102041c.2755102 2.205 2.2040816 3.9 4.5153061 3.9 1.3622449 0 2.5867347-.585 3.4285715-1.53l.8112244.795c-1.0408163 1.14-2.5561224 1.845-4.2397959 1.845-2.9540816 0-5.3877551-2.205-5.6632653-5.025-.0153061-.18-.0306122-.375-.0306122-.555 0-3.09 2.4642857-5.58 5.6938775-5.58 3.5204082 0 5.2959184 2.505 5.2959184 5.58-.0153061.21-.0306123.39-.0459184.57zm-1.2857143-1.11c-.1989796-2.205-1.6224489-3.9-3.9642857-3.9-2.2193877 0-4.2244898 1.71-4.5153061 3.9z" /><path d="m38.7091837 0-5.8163266 13.68-5.8163265-13.68h-1.3010204l7.1173469 16.74 7.117347-16.74z" /></g><path d="m24.7806122 5.58h.5663266v11.16h-.3214286l-.7959184-1.8c-.9183673 1.095-2.3112245 1.8-3.8571428 1.8-2.7551021 0-4.9897959-2.19-4.9897959-4.89v-6.285h1.132653v6.285c0 2.085 1.7142857 3.765 3.8418368 3.765 2.127551 0 3.8418367-1.68 3.8418367-3.765v-6.285h.5816326z" fill="#000" /><path d="m10.7908163 11.715-.4591836-1.11-.45918372 1.11h-6.41326531l-2.14285714 5.025h-1.30102041l7.11734694-16.74 4.51530614 10.605h.0459184v.105l2.5561224 6.03h-1.3010204zm-.4744898-1.11-3.19897956-7.53-3.19897959 7.53z" fill="#000" fill-rule="nonzero" /></g><g transform="translate(15 .5)"><path d="m15.2033968 0 15.2033968 30h-30.4067936zm0 2.7-13.22695522 26.1h26.45391042z" fill="#020202" /><path d="m15.2033968 0 15.2033968 30h-30.4067936zm0 2.7-13.22695522 26.1h26.45391042z" fill="#888" transform="translate(14.291193)" /><path d="m21.5888234 12.6 2.2044926 4.35h-1.3683057l-.8361869-1.65zm8.8179702 17.4h-30.4067936 21.5888234z" fill="#020202" /></g></g></svg>